<svg width="92" height="92" viewBox="0 0 92 92" fill="none" xmlns="http://www.w3.org/2000/svg">
<circle cx="46" cy="46" r="46" fill="white"/>
<path d="M27.001 30.0117C27.001 23.8533 33.6677 20.0048 39.001 23.084L67.4922 39.5332C72.8254 42.6124 72.8255 50.3105 67.4922 53.3896L39.001 69.8398C33.6678 72.9188 27.0012 69.0693 27.001 62.9111V60.8105C27.0009 60.8046 27 60.798 27 60.792V51.7275C27.0001 50.6232 27.8956 49.7277 29 49.7275H30.5996C31.7041 49.7276 32.5995 50.6231 32.5996 51.7275V60.2715C32.5996 63.3355 35.9038 65.262 38.5703 63.7529L62.1445 50.4092C64.8507 48.8774 64.8507 44.9791 62.1445 43.4473L38.5703 30.1035C35.9039 28.5942 32.5998 30.5201 32.5996 33.584V41.1953C32.5995 42.2997 31.7041 43.1952 30.5996 43.1953H29C27.8956 43.1951 27.0001 42.2997 27 41.1953V32.1309C27 32.1244 27.0009 32.1177 27.001 32.1113V30.0117Z" fill="black"/>
</svg>
